<svg width="48" height="48" viewBox="0 0 48 48" fill="none" xmlns="http://www.w3.org/2000/svg">
<circle cx="24" cy="24" r="24" fill="white"/>
<path d="M26.7395 26.6506C25.6313 28.8669 24.6128 29.975 23.6843 29.975C23.3248 29.975 23.1451 29.7354 23.1451 29.2562C23.1451 28.0283 24.2833 25.3627 26.5598 21.2596H23.5645C21.1981 25.782 20 28.9867 20 30.8136C20 32.2812 20.659 33 22.0069 33C22.9953 33 24.0138 32.3411 25.0921 31.0532C26.2004 29.7654 27.069 28.2978 27.728 26.6506H26.7395ZM24.8525 17.0366C24.523 18.2047 25.152 19.0433 26.2603 19.0433C27.4285 19.0433 28.5667 18.1448 28.8962 17.0366C29.2556 15.9285 28.6566 15 27.4884 15C26.3801 15 25.2119 15.8686 24.8525 17.0366Z" fill="black"/>
</svg>
