<svg width="48" height="48" viewBox="0 0 48 48" fill="none" xmlns="http://www.w3.org/2000/svg">
<circle cx="24" cy="24" r="24" fill="black"/>
<path d="M23.4464 10.0769C28.626 9.58798 33.2543 11.5261 35.6383 13.1917C36.2919 13.6484 36.3702 14.5417 35.906 15.19C35.3737 15.9333 34.3348 16.0794 33.5542 15.6036C30.7109 13.8705 27.7362 13.3233 25.2441 13.3233C22.3455 13.3233 14.8929 13.9719 14.8929 21.0974C14.8929 26.6564 21.067 28.7495 25.2441 28.412C27.6736 28.2156 27.9252 27.3862 27.8699 26.6564C27.8061 25.8141 26.9249 25.4928 25.0773 25.4928C23.005 25.4928 17.8892 25.7721 17.721 21.0974C17.5705 19.5489 18.5358 16.6755 23.1679 16.1565C24.544 16.0023 25.9378 16.0719 27.3053 16.2893C30.6714 16.8244 37.0647 18.7497 37.9525 25.6688C38.095 26.7799 38.5252 35.1025 28.5386 37.53C21.6208 39.2116 14.921 36.0302 11.3976 33.514C10.617 32.9566 10.5941 31.8437 11.2865 31.1798C11.9103 30.5818 12.887 30.5781 13.5847 31.0879C17.4725 33.9285 23.3257 35.337 27.774 34.1178C31.5671 33.0782 34.4986 31.2322 34.3658 26.0499C34.233 20.8676 28.241 19.5417 25.2397 19.3637C22.6789 19.2117 21.2446 19.638 21.349 20.9403C21.4623 22.3539 23.2445 22.245 25.743 22.245C28.0419 22.245 31.002 23.0973 31.5009 26.0499C31.9656 28.8003 29.709 31.0445 27.0419 31.5274C24.7231 31.9473 17.1232 32.0525 13.4952 27.1975C9.86716 22.3424 11.3978 17.8496 12.6952 15.8162C13.9926 13.7829 16.1579 10.7648 23.4464 10.0769Z" fill="white"/>
</svg>
